<svg xmlns="http://www.w3.org/2000/svg" viewBox="0 0 1600 650"><defs><linearGradient id="s" x2="0" y2="1"><stop stop-color="#b8e4ff"/><stop offset="1" stop-color="#f5d8a2"/></linearGradient></defs><rect width="1600" height="650" fill="url(#s)"/><circle cx="240" cy="150" r="80" fill="#fff5c9"/><path d="M0 520h1600v130H0z" fill="#157a91"/><path d="M1080 520V210h40v310zm-55 0V315h35v205zm115 0V275h35v245zm75 0V345h30v175z" fill="#e8edf2"/><path d="M1100 210c55-90 105-120 150-128-30 55-62 102-103 135z" fill="#f2b134"/><path d="M760 225c115-30 245-18 350 25-130-5-245 12-350 43l-92-16z" fill="#fff"/><path d="M835 275l-140 72 190-42 72 12z" fill="#f4f8fb"/><ellipse cx="1075" cy="235" rx="38" ry="20" fill="#d5e6ef"/><circle cx="1053" cy="255" r="9" fill="#0b477f"/><circle cx="1093" cy="255" r="9" fill="#0b477f"/></svg>